<svg width="18" height="7" xmlns="http://www.w3.org/2000/svg" xmlns:svg="http://www.w3.org/2000/svg">
 <g>
  <title>Layer 1</title>
  <g stroke="null" fill="#fff" id="layer1">
   <g stroke="null" fill="#fff" id="g2912">
    <path stroke="null" fill="#fff" id="path2918" d="m10.09793,6.42027c-1.63895,-0.09085 -2.91971,-1.61496 -3.43362,-3.19103c-0.31136,-0.92504 -0.14035,-2.31276 0.89695,-2.5726c1.50285,-0.2674 2.74991,1.07001 3.44884,2.34987c0.49789,0.94927 0.77315,2.44415 -0.16038,3.19662c-0.22165,0.15573 -0.48961,0.21819 -0.75178,0.21714l-0.00001,0zm2.61092,-5.40329c-1.84652,-1.1749 -4.17905,-1.26642 -6.20104,-0.6089c-1.28084,0.46915 -2.74569,1.46713 -2.75781,3.0914c-0.00089,1.59146 1.41273,2.58425 2.66365,3.05709c1.98039,0.67865 4.26536,0.61897 6.11436,-0.4629c1.04664,-0.58336 1.97431,-1.79134 1.65974,-3.13026c-0.17297,-0.86097 -0.80253,-1.5052 -1.47891,-1.94643l0.00001,0z"/>
   </g>
  </g>

  <line fill="none" stroke-dasharray="null" stroke-linejoin="null" stroke-linecap="null" x1="2.25" y1="3.5" x2="15.75" y2="3.5" id="svg_5" stroke="#ffffff"/>
 </g>
</svg>